<svg width="311" height="54" viewBox="0 0 311 54" fill="none" xmlns="http://www.w3.org/2000/svg">
<rect width="311" height="54" rx="27" fill="#D5540A"/>
<path d="M60.184 26.1C60.072 25.932 59.96 25.764 59.848 25.596C59.736 25.4093 59.6147 25.232 59.484 25.064C59.1667 24.6533 58.924 24.3547 58.756 24.168C58.364 23.7013 58.4573 23.3187 59.036 23.02C62.228 21.4893 65.1307 19.5013 67.744 17.056C68.6213 16.2347 69.3587 15.404 69.956 14.564C70.2173 14.2467 70.516 14.116 70.852 14.172L73.848 14.564C74.072 14.6013 74.268 14.7133 74.436 14.9C76.564 17.364 79.1773 19.4453 82.276 21.144C83.2653 21.6853 84.264 22.1613 85.272 22.572C85.7387 22.7587 85.804 23.0573 85.468 23.468C84.9267 24.1027 84.3387 24.9893 83.704 26.128C83.5547 26.3893 83.3867 26.52 83.2 26.52C83.032 26.52 82.8453 26.464 82.64 26.352C81.856 25.9973 80.7733 25.372 79.392 24.476C79.2053 24.364 79.0373 24.308 78.888 24.308C78.608 24.308 78.468 24.5227 78.468 24.952V25.148C78.468 25.428 78.384 25.652 78.216 25.82C78.048 25.988 77.824 26.072 77.544 26.072H66.736C66.456 26.072 66.232 25.988 66.064 25.82C65.896 25.652 65.812 25.428 65.812 25.148V24.924C65.812 24.476 65.672 24.252 65.392 24.252C65.224 24.252 64.9533 24.3733 64.58 24.616C62.6387 25.9413 61.472 26.604 61.08 26.604C60.688 26.604 60.3893 26.436 60.184 26.1ZM69.424 22.348H74.856C75.3413 22.348 75.612 22.264 75.668 22.096C75.724 21.9093 75.5653 21.648 75.192 21.312C74.3147 20.584 73.5493 19.8747 72.896 19.184C72.672 18.9227 72.4293 18.792 72.168 18.792C71.9067 18.792 71.6733 18.904 71.468 19.128C70.9827 19.632 70.5067 20.08 70.04 20.472C69.592 20.864 69.2187 21.1907 68.92 21.452C68.64 21.6947 68.528 21.9093 68.584 22.096C68.6587 22.264 68.9387 22.348 69.424 22.348ZM76.928 38.308C76.7227 38.644 76.5267 38.9707 76.34 39.288C76.172 39.6053 75.9947 39.904 75.808 40.184C75.6213 40.4827 75.416 40.632 75.192 40.632C74.968 40.632 74.7067 40.548 74.408 40.38C74.0347 40.1747 73.2133 39.8107 71.944 39.288C71.3653 39.1013 71.244 38.7373 71.58 38.196C71.86 37.7853 72.1587 37.3 72.476 36.74C73.484 34.948 74.0907 33.828 74.296 33.38L74.688 32.568C74.8 32.3253 74.8093 32.1293 74.716 31.98C74.6227 31.8307 74.4453 31.756 74.184 31.756H64.188C63.908 31.756 63.684 31.672 63.516 31.504C63.348 31.336 63.264 31.112 63.264 30.832V28.816C63.264 28.536 63.348 28.312 63.516 28.144C63.684 27.976 63.908 27.892 64.188 27.892H78.692C78.8973 27.892 79.0653 27.948 79.196 28.06L80.484 28.928C80.8947 29.1707 81.016 29.516 80.848 29.964C80.3253 31.42 79.7187 32.8387 79.028 34.22C78.3373 35.5827 77.6373 36.9453 76.928 38.308ZM98.264 22.572C98.2453 22.572 98.2267 22.572 98.208 22.572H98.18C95.0813 22.7213 92.272 22.992 89.752 23.384C89.6213 23.4027 89.5373 23.412 89.5 23.412C89.4813 23.412 89.472 23.412 89.472 23.412C89.2667 23.412 89.08 23.356 88.912 23.244C88.6507 23.076 88.5013 22.8147 88.464 22.46C88.296 21.2093 88.212 20.5467 88.212 20.472C88.212 20.2293 88.2867 20.0147 88.436 19.828C88.6227 19.604 88.884 19.4827 89.22 19.464L98.096 19.016C98.264 19.016 98.3947 18.9693 98.488 18.876C98.5813 18.764 98.628 18.624 98.628 18.456V16.804C98.628 16.4867 98.7307 16.2253 98.936 16.02C99.1413 15.8147 99.4027 15.712 99.72 15.712H101.652C101.969 15.712 102.231 15.8147 102.436 16.02C102.641 16.2253 102.744 16.4867 102.744 16.804V18.232C102.744 18.4187 102.791 18.568 102.884 18.68C102.977 18.7733 103.108 18.82 103.276 18.82C103.276 18.82 104.284 18.7827 106.3 18.708C107.121 18.6707 108.559 18.6333 110.612 18.596C110.948 18.596 111.209 18.6987 111.396 18.904C111.601 19.1093 111.704 19.3613 111.704 19.66C111.704 19.6973 111.648 20.3413 111.536 21.592C111.517 21.928 111.405 22.18 111.2 22.348C110.995 22.516 110.743 22.6 110.444 22.6C110.369 22.6 110.229 22.5907 110.024 22.572C109.837 22.5533 109.511 22.5347 109.044 22.516C107.607 22.4413 106.421 22.404 105.488 22.404H103.304C103.136 22.4227 102.996 22.488 102.884 22.6C102.791 22.6933 102.744 22.7867 102.744 22.88V23.104L102.772 23.132V23.58C102.791 23.636 102.809 23.8507 102.828 24.224C102.847 24.8587 102.912 25.26 103.024 25.428C103.864 26.492 104.284 27.8733 104.284 29.572C104.284 33.0813 102.856 35.76 100 37.608C99.104 38.168 98.1053 38.6347 97.004 39.008C96.8733 39.064 96.752 39.092 96.64 39.092C96.304 39.092 96.0147 38.924 95.772 38.588C95.5293 38.2147 95.3053 37.888 95.1 37.608C94.932 37.3467 94.7173 37.0853 94.456 36.824C94.2507 36.5813 94.148 36.3573 94.148 36.152C94.148 35.8347 94.3627 35.6013 94.792 35.452C96.8827 34.7987 98.3293 34.024 99.132 33.128L98.796 33.156C97.3213 33.156 96.1173 32.7547 95.184 31.952C94.2693 31.1493 93.7653 30.0013 93.672 28.508C93.672 28.4333 93.672 28.3587 93.672 28.284C93.672 27.4067 93.8773 26.5947 94.288 25.848C94.736 25.0453 95.352 24.4387 96.136 24.028C96.92 23.6173 97.7693 23.412 98.684 23.412C98.6653 23.2813 98.6467 23.1507 98.628 23.02C98.628 22.8707 98.5907 22.7587 98.516 22.684C98.46 22.6093 98.376 22.572 98.264 22.572ZM97.564 28.284C97.564 28.6947 97.6853 29.0307 97.928 29.292C98.1147 29.4787 98.3573 29.572 98.656 29.572C99.0667 29.572 99.3653 29.46 99.552 29.236C99.7387 28.9933 99.832 28.7413 99.832 28.48C99.832 28.2187 99.7947 27.948 99.72 27.668C99.5893 27.3133 99.216 27.136 98.6 27.136C98.3387 27.136 98.096 27.248 97.872 27.472C97.6667 27.6773 97.564 27.948 97.564 28.284ZM131.36 38.728C131.211 38.84 131.005 38.896 130.744 38.896C130.501 38.896 130.305 38.756 130.156 38.476C128.7 35.9 126.563 33.016 123.744 29.824C123.184 29.208 122.671 28.6947 122.204 28.284C121.663 27.7987 121.392 27.2947 121.392 26.772C121.392 26.2307 121.681 25.7267 122.26 25.26C122.969 24.6813 123.8 23.888 124.752 22.88C125.723 21.872 126.479 21.0413 127.02 20.388C128.215 18.988 129.148 17.7 129.82 16.524C130.063 16.132 130.352 15.936 130.688 15.936C130.987 15.936 131.229 16.0013 131.416 16.132L133.46 17.504C133.796 17.728 133.964 18.0267 133.964 18.4C133.964 18.624 133.889 18.82 133.74 18.988C133.591 19.156 133.469 19.296 133.376 19.408L131.472 21.536C131.173 21.8533 130.875 22.1707 130.576 22.488L126.768 26.436C126.656 26.548 126.6 26.6693 126.6 26.8C126.6 26.912 126.675 27.052 126.824 27.22C127.011 27.3693 127.207 27.556 127.412 27.78C128.103 28.5267 128.597 29.0867 128.896 29.46C129.213 29.8333 129.531 30.2067 129.848 30.58C130.352 31.1773 131.509 32.5867 133.32 34.808C133.581 35.1813 133.871 35.5733 134.188 35.984C134.319 36.1893 134.384 36.376 134.384 36.544C134.384 36.8427 134.207 37.0667 133.852 37.216C132.657 37.8133 131.827 38.3173 131.36 38.728ZM139.284 22.432C139.06 22.6373 138.789 22.74 138.472 22.74C138.173 22.74 137.903 22.572 137.66 22.236C137.249 21.6947 136.801 21.2093 136.316 20.78C136.055 20.5187 135.924 20.2387 135.924 19.94C135.924 19.6413 136.073 19.3707 136.372 19.128L136.792 18.764C136.979 18.596 137.175 18.512 137.38 18.512C137.585 18.512 137.772 18.5867 137.94 18.736C138.201 18.96 138.379 19.1187 138.472 19.212L139.48 20.304C139.555 20.3973 139.629 20.4813 139.704 20.556L139.9 20.808C140.031 20.9947 140.096 21.2 140.096 21.424C140.096 21.648 139.984 21.8627 139.76 22.068L139.284 22.432ZM134.44 20.808C134.645 20.6213 134.86 20.528 135.084 20.528C135.308 20.528 135.495 20.6027 135.644 20.752C135.737 20.864 135.812 20.948 135.868 21.004C135.961 21.0787 136.045 21.1533 136.12 21.228L137.128 22.32C137.221 22.4133 137.296 22.4973 137.352 22.572L137.548 22.824C137.679 23.0107 137.744 23.216 137.744 23.44C137.744 23.664 137.632 23.8787 137.408 24.084L136.96 24.448C136.699 24.672 136.428 24.784 136.148 24.784C135.868 24.784 135.588 24.616 135.308 24.28V24.252C135.084 23.9347 134.832 23.6453 134.552 23.384C134.291 23.104 134.104 22.8987 133.992 22.768C133.731 22.5253 133.6 22.2547 133.6 21.956C133.6 21.6387 133.74 21.368 134.02 21.144L134.44 20.808ZM153.76 39.316V34.136C153.76 33.856 153.676 33.632 153.508 33.464C153.34 33.296 153.116 33.212 152.836 33.212H145.808C145.528 33.212 145.304 33.128 145.136 32.96C144.968 32.792 144.884 32.568 144.884 32.288V18.904C144.884 18.624 144.968 18.4 145.136 18.232C145.304 18.064 145.528 17.98 145.808 17.98H152.836C153.116 17.98 153.34 17.896 153.508 17.728C153.676 17.56 153.76 17.336 153.76 17.056V15.432C153.76 15.152 153.844 14.928 154.012 14.76C154.18 14.592 154.404 14.508 154.684 14.508H157.232C157.512 14.508 157.736 14.592 157.904 14.76C158.072 14.928 158.156 15.152 158.156 15.432V17.056C158.156 17.336 158.24 17.56 158.408 17.728C158.576 17.896 158.8 17.98 159.08 17.98H166.164C166.444 17.98 166.668 18.064 166.836 18.232C167.004 18.4 167.088 18.624 167.088 18.904V32.288C167.088 32.568 167.004 32.792 166.836 32.96C166.668 33.128 166.444 33.212 166.164 33.212H159.08C158.8 33.212 158.576 33.296 158.408 33.464C158.24 33.632 158.156 33.856 158.156 34.136V39.316C158.156 39.596 158.072 39.82 157.904 39.988C157.736 40.156 157.512 40.24 157.232 40.24H154.684C154.404 40.24 154.18 40.156 154.012 39.988C153.844 39.82 153.76 39.596 153.76 39.316ZM159.08 23.832H161.74C162.02 23.832 162.244 23.748 162.412 23.58C162.58 23.412 162.664 23.188 162.664 22.908V22.712C162.664 22.432 162.58 22.208 162.412 22.04C162.244 21.872 162.02 21.788 161.74 21.788H159.08C158.8 21.788 158.576 21.872 158.408 22.04C158.24 22.208 158.156 22.432 158.156 22.712V22.908C158.156 23.188 158.24 23.412 158.408 23.58C158.576 23.748 158.8 23.832 159.08 23.832ZM150.26 23.832H152.836C153.116 23.832 153.34 23.748 153.508 23.58C153.676 23.412 153.76 23.188 153.76 22.908V22.712C153.76 22.432 153.676 22.208 153.508 22.04C153.34 21.872 153.116 21.788 152.836 21.788H150.26C149.98 21.788 149.756 21.872 149.588 22.04C149.42 22.208 149.336 22.432 149.336 22.712V22.908C149.336 23.188 149.42 23.412 149.588 23.58C149.756 23.748 149.98 23.832 150.26 23.832ZM159.08 29.404H161.74C162.02 29.404 162.244 29.32 162.412 29.152C162.58 28.984 162.664 28.76 162.664 28.48V28.312C162.664 28.032 162.58 27.808 162.412 27.64C162.244 27.472 162.02 27.388 161.74 27.388H159.08C158.8 27.388 158.576 27.472 158.408 27.64C158.24 27.808 158.156 28.032 158.156 28.312V28.48C158.156 28.76 158.24 28.984 158.408 29.152C158.576 29.32 158.8 29.404 159.08 29.404ZM150.26 29.404H152.836C153.116 29.404 153.34 29.32 153.508 29.152C153.676 28.984 153.76 28.76 153.76 28.48V28.312C153.76 28.032 153.676 27.808 153.508 27.64C153.34 27.472 153.116 27.388 152.836 27.388H150.26C149.98 27.388 149.756 27.472 149.588 27.64C149.42 27.808 149.336 28.032 149.336 28.312V28.48C149.336 28.76 149.42 28.984 149.588 29.152C149.756 29.32 149.98 29.404 150.26 29.404ZM181.592 17.364L181.564 17.84C181.564 18.0267 181.527 18.8667 181.452 20.36L181.396 24.896V32.456C181.396 32.9413 181.527 33.296 181.788 33.52C182.012 33.7067 182.32 33.8187 182.712 33.856C182.992 33.8747 183.291 33.884 183.608 33.884C186.557 33.884 189.199 32.9507 191.532 31.084C191.719 30.9533 191.896 30.888 192.064 30.888C192.232 30.888 192.363 30.9627 192.456 31.112C192.512 31.224 192.54 31.3733 192.54 31.56C192.54 31.7467 192.568 31.952 192.624 32.176V32.204C192.68 32.7267 192.755 33.2213 192.848 33.688L192.96 34.332C192.997 34.4253 193.016 34.5093 193.016 34.584C193.016 34.9387 192.857 35.2093 192.54 35.396C191.196 36.3107 189.731 36.992 188.144 37.44C186.576 37.888 185.157 38.112 183.888 38.112C182.619 38.112 181.601 38.056 180.836 37.944C180.089 37.832 179.436 37.5987 178.876 37.244C177.7 36.5347 177.112 35.2 177.112 33.24V17.42C177.112 17.1027 177.205 16.8507 177.392 16.664C177.597 16.4587 177.849 16.356 178.148 16.356C178.167 16.356 179.007 16.4027 180.668 16.496C180.948 16.5147 181.172 16.6173 181.34 16.804C181.508 16.972 181.592 17.1587 181.592 17.364ZM204.468 21.396C204.319 21.396 204.179 21.3307 204.048 21.2C203.936 21.0507 203.805 20.9013 203.656 20.752L203.152 20.248C202.331 19.4453 201.472 18.6987 200.576 18.008C200.016 17.5787 199.979 17.1213 200.464 16.636L201.836 15.264C202.004 15.0773 202.181 14.984 202.368 14.984C202.573 14.984 202.732 15.0307 202.844 15.124C202.975 15.1987 203.087 15.2733 203.18 15.348C203.292 15.404 203.395 15.4693 203.488 15.544L204.888 16.664C205.131 16.8693 205.364 17.0653 205.588 17.252C205.831 17.4387 206.027 17.6067 206.176 17.756C206.4 17.98 206.633 18.2133 206.876 18.456C207.119 18.6987 207.091 18.96 206.792 19.24C206.736 19.296 206.671 19.3613 206.596 19.436C206.521 19.492 206.419 19.5853 206.288 19.716C206.157 19.8467 205.999 19.996 205.812 20.164C205.644 20.332 205.504 20.4907 205.392 20.64C205.131 20.9013 204.944 21.0973 204.832 21.228C204.739 21.34 204.617 21.396 204.468 21.396ZM210.32 34.724C210.133 34.892 209.919 34.976 209.676 34.976C209.452 34.976 209.219 34.8547 208.976 34.612C208.733 34.3507 208.491 34.136 208.248 33.968C208.024 33.8 207.847 33.6693 207.716 33.576C207.585 33.4827 207.455 33.3893 207.324 33.296C206.801 32.9787 206.764 32.624 207.212 32.232C208.519 31.1307 209.685 29.5813 210.712 27.584C211.664 25.736 212.28 23.8787 212.56 22.012C212.653 21.4147 212.999 21.144 213.596 21.2L213.652 21.228C213.932 21.2653 214.156 21.2093 214.324 21.06C214.492 20.892 214.567 20.668 214.548 20.388V20.332C214.529 20.052 214.436 19.828 214.268 19.66C214.1 19.492 213.876 19.408 213.596 19.408H210.74C210.46 19.408 210.236 19.324 210.068 19.156C209.9 18.988 209.816 18.764 209.816 18.484V16.384C209.816 16.104 209.9 15.88 210.068 15.712C210.236 15.544 210.46 15.46 210.74 15.46H217.488C217.787 15.46 218.02 15.5533 218.188 15.74C218.356 15.908 218.421 16.1413 218.384 16.44C218.272 18.4933 218.356 20.4627 218.636 22.348C218.935 24.2333 219.569 26.016 220.54 27.696C221.529 29.376 222.845 30.804 224.488 31.98C224.824 32.2413 224.833 32.5027 224.516 32.764C224.497 32.7827 224.479 32.8013 224.46 32.82C224.441 32.82 224.413 32.8387 224.376 32.876L224.124 33.072C224.087 33.0907 224.059 33.1093 224.04 33.128C224.04 33.1467 223.984 33.2027 223.872 33.296C223.275 33.8 222.789 34.2853 222.416 34.752C222.285 34.92 222.108 35.004 221.884 35.004C221.679 35.004 221.389 34.8453 221.016 34.528C220.643 34.2107 220.251 33.8467 219.84 33.436C218.627 32.1853 217.749 31.0933 217.208 30.16C216.947 29.7307 216.704 29.2827 216.48 28.816C216.125 28.0507 215.78 27.668 215.444 27.668C215.108 27.668 214.725 28.1253 214.296 29.04C213.307 31.2427 211.981 33.1373 210.32 34.724ZM199.764 39.204L198.7 36.516C198.551 36.1053 198.672 35.8253 199.064 35.676L201.164 34.92L201.696 34.696C202.051 34.5093 202.228 34.2387 202.228 33.884V28.956C202.228 28.676 202.144 28.452 201.976 28.284C201.808 28.116 201.584 28.032 201.304 28.032H200.212C199.932 28.032 199.708 27.948 199.54 27.78C199.372 27.612 199.288 27.388 199.288 27.108V25.4C199.288 25.12 199.372 24.896 199.54 24.728C199.708 24.56 199.932 24.476 200.212 24.476H205.196C205.476 24.476 205.7 24.56 205.868 24.728C206.036 24.896 206.12 25.12 206.12 25.4V33.856C206.12 34.6587 206.783 35.2467 208.108 35.62C209.433 35.9747 211.543 36.152 214.436 36.152C218.953 36.152 222.341 36.0213 224.6 35.76C224.992 35.704 225.132 35.8627 225.02 36.236C224.684 37.3187 224.497 38.0467 224.46 38.42C224.441 38.812 224.423 39.064 224.404 39.176C224.348 39.6427 224.096 39.876 223.648 39.876H214.436C212.383 39.876 210.833 39.8013 209.788 39.652C207.641 39.3533 206.017 38.7653 204.916 37.888C204.711 37.7387 204.505 37.664 204.3 37.664C204.113 37.664 203.927 37.7107 203.74 37.804L203.068 38.252L200.8 39.568C200.669 39.6427 200.501 39.68 200.296 39.68C200.091 39.68 199.913 39.5213 199.764 39.204ZM230.844 19.128L232.44 19.1C232.776 19.1 233.065 19.0907 233.308 19.072C233.569 19.0533 233.747 19.0067 233.84 18.932C233.952 18.8387 234.008 18.6893 234.008 18.484V17.14C234.008 16.8227 234.111 16.5707 234.316 16.384C234.521 16.1787 234.783 16.076 235.1 16.076H236.892C237.209 16.076 237.461 16.1787 237.648 16.384C237.853 16.5707 237.956 16.8227 237.956 17.14V18.092C237.956 18.2787 238.003 18.4187 238.096 18.512C238.208 18.6053 238.32 18.652 238.432 18.652C238.469 18.652 238.656 18.6333 238.992 18.596C239.328 18.54 239.571 18.5027 239.72 18.484C239.888 18.4467 240.037 18.428 240.168 18.428C240.299 18.4093 240.42 18.3813 240.532 18.344C240.625 18.3253 240.709 18.316 240.784 18.316C241.083 18.316 241.307 18.4187 241.456 18.624C241.568 18.7733 241.633 18.9693 241.652 19.212C241.708 20.4627 241.736 21.0973 241.736 21.116C241.736 21.3587 241.652 21.5733 241.484 21.76C241.335 21.9467 241.139 22.0587 240.896 22.096C240.429 22.1893 239.972 22.2547 239.524 22.292C239.076 22.3293 238.749 22.3667 238.544 22.404C238.339 22.4227 238.189 22.4787 238.096 22.572C238.003 22.6467 237.956 22.7773 237.956 22.964V24.168C237.956 24.3547 238.068 24.56 238.292 24.784C238.572 25.1013 238.805 25.596 238.992 26.268C239.048 26.5293 239.076 26.7907 239.076 27.052C239.076 27.5747 238.973 28.088 238.768 28.592C238.451 29.3387 238.124 29.9173 237.788 30.328C237.452 30.7387 237.097 31.2147 236.724 31.756C236.351 32.2973 236.164 32.792 236.164 33.24C236.164 33.6693 236.22 33.9587 236.332 34.108C236.444 34.2387 236.715 34.332 237.144 34.388C237.592 34.4253 238.143 34.444 238.796 34.444C239.468 34.444 240.019 34.4347 240.448 34.416C240.877 34.3973 241.307 34.3507 241.736 34.276C242.669 34.0893 243.313 33.7533 243.668 33.268C243.929 32.876 244.097 32.3627 244.172 31.728C244.265 30.664 244.293 29.908 244.256 29.46C244.256 29.4227 244.256 29.3667 244.256 29.292C244.256 29.1987 244.284 29.1053 244.34 29.012C244.433 28.8627 244.564 28.788 244.732 28.788C244.844 28.788 244.975 28.8253 245.124 28.9C246.057 29.2547 246.907 29.488 247.672 29.6C247.915 29.6373 248.101 29.7213 248.232 29.852C248.419 30.02 248.512 30.244 248.512 30.524C248.475 33.5853 247.625 35.7413 245.964 36.992C245.18 37.5893 244.219 38 243.08 38.224C241.96 38.448 240.933 38.56 240 38.56C239.067 38.56 238.301 38.5507 237.704 38.532C237.125 38.532 236.537 38.4853 235.94 38.392C234.521 38.224 233.476 37.86 232.804 37.3C232.132 36.7213 231.796 35.9093 231.796 34.864C231.796 34.36 231.899 33.8467 232.104 33.324C232.141 33.1373 232.263 32.8387 232.468 32.428C232.505 32.3533 232.524 32.288 232.524 32.232C232.524 32.12 232.393 32.0267 232.132 31.952C231.777 31.8213 231.507 31.6907 231.32 31.56C230.648 31.112 230.181 30.468 229.92 29.628C229.789 29.18 229.724 28.7413 229.724 28.312C229.724 27.8827 229.771 27.4627 229.864 27.052C230.069 26.1373 230.489 25.3813 231.124 24.784C231.777 24.168 232.552 23.7293 233.448 23.468C233.448 23.468 233.635 23.412 234.008 23.3V22.992C234.008 22.8987 233.989 22.8333 233.952 22.796C233.933 22.7587 233.905 22.74 233.868 22.74C233.812 22.74 233.775 22.74 233.756 22.74C232.393 22.8333 231.273 22.88 230.396 22.88C230.116 22.88 229.892 22.8053 229.724 22.656C229.5 22.488 229.379 22.2267 229.36 21.872C229.267 20.752 229.22 20.1733 229.22 20.136C229.22 19.8373 229.313 19.5947 229.5 19.408C229.705 19.2027 229.967 19.1 230.284 19.1L230.844 19.128ZM243.248 23.3C243.248 23.0387 243.369 22.7867 243.612 22.544L244.816 21.172C245.003 20.9293 245.217 20.808 245.46 20.808C245.721 20.808 245.927 20.8547 246.076 20.948C246.916 21.3587 247.7 21.8533 248.428 22.432C249.175 23.0107 249.903 23.5987 250.612 24.196C250.836 24.42 250.948 24.6533 250.948 24.896C250.948 25.1387 250.864 25.372 250.696 25.596L249.408 27.22C249.147 27.5373 248.867 27.696 248.568 27.696C248.269 27.696 247.989 27.556 247.728 27.276C247.093 26.6413 246.468 26.1 245.852 25.652C245.236 25.204 244.583 24.7373 243.892 24.252C243.463 24.0093 243.248 23.692 243.248 23.3ZM233.644 28.9C234.073 28.9 234.381 28.5547 234.568 27.864C234.643 27.6773 234.68 27.5187 234.68 27.388C234.68 27.2573 234.652 27.1453 234.596 27.052C234.503 26.828 234.381 26.6973 234.232 26.66C234.195 26.6413 234.157 26.632 234.12 26.632C234.008 26.632 233.868 26.6973 233.7 26.828C233.457 27.0147 233.299 27.2947 233.224 27.668C233.168 27.8733 233.14 28.0413 233.14 28.172C233.14 28.3027 233.159 28.4147 233.196 28.508C233.271 28.7693 233.42 28.9 233.644 28.9Z" fill="black"/>
<path d="M60.184 26.1C60.072 25.932 59.96 25.764 59.848 25.596C59.736 25.4093 59.6147 25.232 59.484 25.064C59.1667 24.6533 58.924 24.3547 58.756 24.168C58.364 23.7013 58.4573 23.3187 59.036 23.02C62.228 21.4893 65.1307 19.5013 67.744 17.056C68.6213 16.2347 69.3587 15.404 69.956 14.564C70.2173 14.2467 70.516 14.116 70.852 14.172L73.848 14.564C74.072 14.6013 74.268 14.7133 74.436 14.9C76.564 17.364 79.1773 19.4453 82.276 21.144C83.2653 21.6853 84.264 22.1613 85.272 22.572C85.7387 22.7587 85.804 23.0573 85.468 23.468C84.9267 24.1027 84.3387 24.9893 83.704 26.128C83.5547 26.3893 83.3867 26.52 83.2 26.52C83.032 26.52 82.8453 26.464 82.64 26.352C81.856 25.9973 80.7733 25.372 79.392 24.476C79.2053 24.364 79.0373 24.308 78.888 24.308C78.608 24.308 78.468 24.5227 78.468 24.952V25.148C78.468 25.428 78.384 25.652 78.216 25.82C78.048 25.988 77.824 26.072 77.544 26.072H66.736C66.456 26.072 66.232 25.988 66.064 25.82C65.896 25.652 65.812 25.428 65.812 25.148V24.924C65.812 24.476 65.672 24.252 65.392 24.252C65.224 24.252 64.9533 24.3733 64.58 24.616C62.6387 25.9413 61.472 26.604 61.08 26.604C60.688 26.604 60.3893 26.436 60.184 26.1ZM69.424 22.348H74.856C75.3413 22.348 75.612 22.264 75.668 22.096C75.724 21.9093 75.5653 21.648 75.192 21.312C74.3147 20.584 73.5493 19.8747 72.896 19.184C72.672 18.9227 72.4293 18.792 72.168 18.792C71.9067 18.792 71.6733 18.904 71.468 19.128C70.9827 19.632 70.5067 20.08 70.04 20.472C69.592 20.864 69.2187 21.1907 68.92 21.452C68.64 21.6947 68.528 21.9093 68.584 22.096C68.6587 22.264 68.9387 22.348 69.424 22.348ZM76.928 38.308C76.7227 38.644 76.5267 38.9707 76.34 39.288C76.172 39.6053 75.9947 39.904 75.808 40.184C75.6213 40.4827 75.416 40.632 75.192 40.632C74.968 40.632 74.7067 40.548 74.408 40.38C74.0347 40.1747 73.2133 39.8107 71.944 39.288C71.3653 39.1013 71.244 38.7373 71.58 38.196C71.86 37.7853 72.1587 37.3 72.476 36.74C73.484 34.948 74.0907 33.828 74.296 33.38L74.688 32.568C74.8 32.3253 74.8093 32.1293 74.716 31.98C74.6227 31.8307 74.4453 31.756 74.184 31.756H64.188C63.908 31.756 63.684 31.672 63.516 31.504C63.348 31.336 63.264 31.112 63.264 30.832V28.816C63.264 28.536 63.348 28.312 63.516 28.144C63.684 27.976 63.908 27.892 64.188 27.892H78.692C78.8973 27.892 79.0653 27.948 79.196 28.06L80.484 28.928C80.8947 29.1707 81.016 29.516 80.848 29.964C80.3253 31.42 79.7187 32.8387 79.028 34.22C78.3373 35.5827 77.6373 36.9453 76.928 38.308ZM98.264 22.572C98.2453 22.572 98.2267 22.572 98.208 22.572H98.18C95.0813 22.7213 92.272 22.992 89.752 23.384C89.6213 23.4027 89.5373 23.412 89.5 23.412C89.4813 23.412 89.472 23.412 89.472 23.412C89.2667 23.412 89.08 23.356 88.912 23.244C88.6507 23.076 88.5013 22.8147 88.464 22.46C88.296 21.2093 88.212 20.5467 88.212 20.472C88.212 20.2293 88.2867 20.0147 88.436 19.828C88.6227 19.604 88.884 19.4827 89.22 19.464L98.096 19.016C98.264 19.016 98.3947 18.9693 98.488 18.876C98.5813 18.764 98.628 18.624 98.628 18.456V16.804C98.628 16.4867 98.7307 16.2253 98.936 16.02C99.1413 15.8147 99.4027 15.712 99.72 15.712H101.652C101.969 15.712 102.231 15.8147 102.436 16.02C102.641 16.2253 102.744 16.4867 102.744 16.804V18.232C102.744 18.4187 102.791 18.568 102.884 18.68C102.977 18.7733 103.108 18.82 103.276 18.82C103.276 18.82 104.284 18.7827 106.3 18.708C107.121 18.6707 108.559 18.6333 110.612 18.596C110.948 18.596 111.209 18.6987 111.396 18.904C111.601 19.1093 111.704 19.3613 111.704 19.66C111.704 19.6973 111.648 20.3413 111.536 21.592C111.517 21.928 111.405 22.18 111.2 22.348C110.995 22.516 110.743 22.6 110.444 22.6C110.369 22.6 110.229 22.5907 110.024 22.572C109.837 22.5533 109.511 22.5347 109.044 22.516C107.607 22.4413 106.421 22.404 105.488 22.404H103.304C103.136 22.4227 102.996 22.488 102.884 22.6C102.791 22.6933 102.744 22.7867 102.744 22.88V23.104L102.772 23.132V23.58C102.791 23.636 102.809 23.8507 102.828 24.224C102.847 24.8587 102.912 25.26 103.024 25.428C103.864 26.492 104.284 27.8733 104.284 29.572C104.284 33.0813 102.856 35.76 100 37.608C99.104 38.168 98.1053 38.6347 97.004 39.008C96.8733 39.064 96.752 39.092 96.64 39.092C96.304 39.092 96.0147 38.924 95.772 38.588C95.5293 38.2147 95.3053 37.888 95.1 37.608C94.932 37.3467 94.7173 37.0853 94.456 36.824C94.2507 36.5813 94.148 36.3573 94.148 36.152C94.148 35.8347 94.3627 35.6013 94.792 35.452C96.8827 34.7987 98.3293 34.024 99.132 33.128L98.796 33.156C97.3213 33.156 96.1173 32.7547 95.184 31.952C94.2693 31.1493 93.7653 30.0013 93.672 28.508C93.672 28.4333 93.672 28.3587 93.672 28.284C93.672 27.4067 93.8773 26.5947 94.288 25.848C94.736 25.0453 95.352 24.4387 96.136 24.028C96.92 23.6173 97.7693 23.412 98.684 23.412C98.6653 23.2813 98.6467 23.1507 98.628 23.02C98.628 22.8707 98.5907 22.7587 98.516 22.684C98.46 22.6093 98.376 22.572 98.264 22.572ZM97.564 28.284C97.564 28.6947 97.6853 29.0307 97.928 29.292C98.1147 29.4787 98.3573 29.572 98.656 29.572C99.0667 29.572 99.3653 29.46 99.552 29.236C99.7387 28.9933 99.832 28.7413 99.832 28.48C99.832 28.2187 99.7947 27.948 99.72 27.668C99.5893 27.3133 99.216 27.136 98.6 27.136C98.3387 27.136 98.096 27.248 97.872 27.472C97.6667 27.6773 97.564 27.948 97.564 28.284ZM131.36 38.728C131.211 38.84 131.005 38.896 130.744 38.896C130.501 38.896 130.305 38.756 130.156 38.476C128.7 35.9 126.563 33.016 123.744 29.824C123.184 29.208 122.671 28.6947 122.204 28.284C121.663 27.7987 121.392 27.2947 121.392 26.772C121.392 26.2307 121.681 25.7267 122.26 25.26C122.969 24.6813 123.8 23.888 124.752 22.88C125.723 21.872 126.479 21.0413 127.02 20.388C128.215 18.988 129.148 17.7 129.82 16.524C130.063 16.132 130.352 15.936 130.688 15.936C130.987 15.936 131.229 16.0013 131.416 16.132L133.46 17.504C133.796 17.728 133.964 18.0267 133.964 18.4C133.964 18.624 133.889 18.82 133.74 18.988C133.591 19.156 133.469 19.296 133.376 19.408L131.472 21.536C131.173 21.8533 130.875 22.1707 130.576 22.488L126.768 26.436C126.656 26.548 126.6 26.6693 126.6 26.8C126.6 26.912 126.675 27.052 126.824 27.22C127.011 27.3693 127.207 27.556 127.412 27.78C128.103 28.5267 128.597 29.0867 128.896 29.46C129.213 29.8333 129.531 30.2067 129.848 30.58C130.352 31.1773 131.509 32.5867 133.32 34.808C133.581 35.1813 133.871 35.5733 134.188 35.984C134.319 36.1893 134.384 36.376 134.384 36.544C134.384 36.8427 134.207 37.0667 133.852 37.216C132.657 37.8133 131.827 38.3173 131.36 38.728ZM139.284 22.432C139.06 22.6373 138.789 22.74 138.472 22.74C138.173 22.74 137.903 22.572 137.66 22.236C137.249 21.6947 136.801 21.2093 136.316 20.78C136.055 20.5187 135.924 20.2387 135.924 19.94C135.924 19.6413 136.073 19.3707 136.372 19.128L136.792 18.764C136.979 18.596 137.175 18.512 137.38 18.512C137.585 18.512 137.772 18.5867 137.94 18.736C138.201 18.96 138.379 19.1187 138.472 19.212L139.48 20.304C139.555 20.3973 139.629 20.4813 139.704 20.556L139.9 20.808C140.031 20.9947 140.096 21.2 140.096 21.424C140.096 21.648 139.984 21.8627 139.76 22.068L139.284 22.432ZM134.44 20.808C134.645 20.6213 134.86 20.528 135.084 20.528C135.308 20.528 135.495 20.6027 135.644 20.752C135.737 20.864 135.812 20.948 135.868 21.004C135.961 21.0787 136.045 21.1533 136.12 21.228L137.128 22.32C137.221 22.4133 137.296 22.4973 137.352 22.572L137.548 22.824C137.679 23.0107 137.744 23.216 137.744 23.44C137.744 23.664 137.632 23.8787 137.408 24.084L136.96 24.448C136.699 24.672 136.428 24.784 136.148 24.784C135.868 24.784 135.588 24.616 135.308 24.28V24.252C135.084 23.9347 134.832 23.6453 134.552 23.384C134.291 23.104 134.104 22.8987 133.992 22.768C133.731 22.5253 133.6 22.2547 133.6 21.956C133.6 21.6387 133.74 21.368 134.02 21.144L134.44 20.808ZM153.76 39.316V34.136C153.76 33.856 153.676 33.632 153.508 33.464C153.34 33.296 153.116 33.212 152.836 33.212H145.808C145.528 33.212 145.304 33.128 145.136 32.96C144.968 32.792 144.884 32.568 144.884 32.288V18.904C144.884 18.624 144.968 18.4 145.136 18.232C145.304 18.064 145.528 17.98 145.808 17.98H152.836C153.116 17.98 153.34 17.896 153.508 17.728C153.676 17.56 153.76 17.336 153.76 17.056V15.432C153.76 15.152 153.844 14.928 154.012 14.76C154.18 14.592 154.404 14.508 154.684 14.508H157.232C157.512 14.508 157.736 14.592 157.904 14.76C158.072 14.928 158.156 15.152 158.156 15.432V17.056C158.156 17.336 158.24 17.56 158.408 17.728C158.576 17.896 158.8 17.98 159.08 17.98H166.164C166.444 17.98 166.668 18.064 166.836 18.232C167.004 18.4 167.088 18.624 167.088 18.904V32.288C167.088 32.568 167.004 32.792 166.836 32.96C166.668 33.128 166.444 33.212 166.164 33.212H159.08C158.8 33.212 158.576 33.296 158.408 33.464C158.24 33.632 158.156 33.856 158.156 34.136V39.316C158.156 39.596 158.072 39.82 157.904 39.988C157.736 40.156 157.512 40.24 157.232 40.24H154.684C154.404 40.24 154.18 40.156 154.012 39.988C153.844 39.82 153.76 39.596 153.76 39.316ZM159.08 23.832H161.74C162.02 23.832 162.244 23.748 162.412 23.58C162.58 23.412 162.664 23.188 162.664 22.908V22.712C162.664 22.432 162.58 22.208 162.412 22.04C162.244 21.872 162.02 21.788 161.74 21.788H159.08C158.8 21.788 158.576 21.872 158.408 22.04C158.24 22.208 158.156 22.432 158.156 22.712V22.908C158.156 23.188 158.24 23.412 158.408 23.58C158.576 23.748 158.8 23.832 159.08 23.832ZM150.26 23.832H152.836C153.116 23.832 153.34 23.748 153.508 23.58C153.676 23.412 153.76 23.188 153.76 22.908V22.712C153.76 22.432 153.676 22.208 153.508 22.04C153.34 21.872 153.116 21.788 152.836 21.788H150.26C149.98 21.788 149.756 21.872 149.588 22.04C149.42 22.208 149.336 22.432 149.336 22.712V22.908C149.336 23.188 149.42 23.412 149.588 23.58C149.756 23.748 149.98 23.832 150.26 23.832ZM159.08 29.404H161.74C162.02 29.404 162.244 29.32 162.412 29.152C162.58 28.984 162.664 28.76 162.664 28.48V28.312C162.664 28.032 162.58 27.808 162.412 27.64C162.244 27.472 162.02 27.388 161.74 27.388H159.08C158.8 27.388 158.576 27.472 158.408 27.64C158.24 27.808 158.156 28.032 158.156 28.312V28.48C158.156 28.76 158.24 28.984 158.408 29.152C158.576 29.32 158.8 29.404 159.08 29.404ZM150.26 29.404H152.836C153.116 29.404 153.34 29.32 153.508 29.152C153.676 28.984 153.76 28.76 153.76 28.48V28.312C153.76 28.032 153.676 27.808 153.508 27.64C153.34 27.472 153.116 27.388 152.836 27.388H150.26C149.98 27.388 149.756 27.472 149.588 27.64C149.42 27.808 149.336 28.032 149.336 28.312V28.48C149.336 28.76 149.42 28.984 149.588 29.152C149.756 29.32 149.98 29.404 150.26 29.404ZM181.592 17.364L181.564 17.84C181.564 18.0267 181.527 18.8667 181.452 20.36L181.396 24.896V32.456C181.396 32.9413 181.527 33.296 181.788 33.52C182.012 33.7067 182.32 33.8187 182.712 33.856C182.992 33.8747 183.291 33.884 183.608 33.884C186.557 33.884 189.199 32.9507 191.532 31.084C191.719 30.9533 191.896 30.888 192.064 30.888C192.232 30.888 192.363 30.9627 192.456 31.112C192.512 31.224 192.54 31.3733 192.54 31.56C192.54 31.7467 192.568 31.952 192.624 32.176V32.204C192.68 32.7267 192.755 33.2213 192.848 33.688L192.96 34.332C192.997 34.4253 193.016 34.5093 193.016 34.584C193.016 34.9387 192.857 35.2093 192.54 35.396C191.196 36.3107 189.731 36.992 188.144 37.44C186.576 37.888 185.157 38.112 183.888 38.112C182.619 38.112 181.601 38.056 180.836 37.944C180.089 37.832 179.436 37.5987 178.876 37.244C177.7 36.5347 177.112 35.2 177.112 33.24V17.42C177.112 17.1027 177.205 16.8507 177.392 16.664C177.597 16.4587 177.849 16.356 178.148 16.356C178.167 16.356 179.007 16.4027 180.668 16.496C180.948 16.5147 181.172 16.6173 181.34 16.804C181.508 16.972 181.592 17.1587 181.592 17.364ZM204.468 21.396C204.319 21.396 204.179 21.3307 204.048 21.2C203.936 21.0507 203.805 20.9013 203.656 20.752L203.152 20.248C202.331 19.4453 201.472 18.6987 200.576 18.008C200.016 17.5787 199.979 17.1213 200.464 16.636L201.836 15.264C202.004 15.0773 202.181 14.984 202.368 14.984C202.573 14.984 202.732 15.0307 202.844 15.124C202.975 15.1987 203.087 15.2733 203.18 15.348C203.292 15.404 203.395 15.4693 203.488 15.544L204.888 16.664C205.131 16.8693 205.364 17.0653 205.588 17.252C205.831 17.4387 206.027 17.6067 206.176 17.756C206.4 17.98 206.633 18.2133 206.876 18.456C207.119 18.6987 207.091 18.96 206.792 19.24C206.736 19.296 206.671 19.3613 206.596 19.436C206.521 19.492 206.419 19.5853 206.288 19.716C206.157 19.8467 205.999 19.996 205.812 20.164C205.644 20.332 205.504 20.4907 205.392 20.64C205.131 20.9013 204.944 21.0973 204.832 21.228C204.739 21.34 204.617 21.396 204.468 21.396ZM210.32 34.724C210.133 34.892 209.919 34.976 209.676 34.976C209.452 34.976 209.219 34.8547 208.976 34.612C208.733 34.3507 208.491 34.136 208.248 33.968C208.024 33.8 207.847 33.6693 207.716 33.576C207.585 33.4827 207.455 33.3893 207.324 33.296C206.801 32.9787 206.764 32.624 207.212 32.232C208.519 31.1307 209.685 29.5813 210.712 27.584C211.664 25.736 212.28 23.8787 212.56 22.012C212.653 21.4147 212.999 21.144 213.596 21.2L213.652 21.228C213.932 21.2653 214.156 21.2093 214.324 21.06C214.492 20.892 214.567 20.668 214.548 20.388V20.332C214.529 20.052 214.436 19.828 214.268 19.66C214.1 19.492 213.876 19.408 213.596 19.408H210.74C210.46 19.408 210.236 19.324 210.068 19.156C209.9 18.988 209.816 18.764 209.816 18.484V16.384C209.816 16.104 209.9 15.88 210.068 15.712C210.236 15.544 210.46 15.46 210.74 15.46H217.488C217.787 15.46 218.02 15.5533 218.188 15.74C218.356 15.908 218.421 16.1413 218.384 16.44C218.272 18.4933 218.356 20.4627 218.636 22.348C218.935 24.2333 219.569 26.016 220.54 27.696C221.529 29.376 222.845 30.804 224.488 31.98C224.824 32.2413 224.833 32.5027 224.516 32.764C224.497 32.7827 224.479 32.8013 224.46 32.82C224.441 32.82 224.413 32.8387 224.376 32.876L224.124 33.072C224.087 33.0907 224.059 33.1093 224.04 33.128C224.04 33.1467 223.984 33.2027 223.872 33.296C223.275 33.8 222.789 34.2853 222.416 34.752C222.285 34.92 222.108 35.004 221.884 35.004C221.679 35.004 221.389 34.8453 221.016 34.528C220.643 34.2107 220.251 33.8467 219.84 33.436C218.627 32.1853 217.749 31.0933 217.208 30.16C216.947 29.7307 216.704 29.2827 216.48 28.816C216.125 28.0507 215.78 27.668 215.444 27.668C215.108 27.668 214.725 28.1253 214.296 29.04C213.307 31.2427 211.981 33.1373 210.32 34.724ZM199.764 39.204L198.7 36.516C198.551 36.1053 198.672 35.8253 199.064 35.676L201.164 34.92L201.696 34.696C202.051 34.5093 202.228 34.2387 202.228 33.884V28.956C202.228 28.676 202.144 28.452 201.976 28.284C201.808 28.116 201.584 28.032 201.304 28.032H200.212C199.932 28.032 199.708 27.948 199.54 27.78C199.372 27.612 199.288 27.388 199.288 27.108V25.4C199.288 25.12 199.372 24.896 199.54 24.728C199.708 24.56 199.932 24.476 200.212 24.476H205.196C205.476 24.476 205.7 24.56 205.868 24.728C206.036 24.896 206.12 25.12 206.12 25.4V33.856C206.12 34.6587 206.783 35.2467 208.108 35.62C209.433 35.9747 211.543 36.152 214.436 36.152C218.953 36.152 222.341 36.0213 224.6 35.76C224.992 35.704 225.132 35.8627 225.02 36.236C224.684 37.3187 224.497 38.0467 224.46 38.42C224.441 38.812 224.423 39.064 224.404 39.176C224.348 39.6427 224.096 39.876 223.648 39.876H214.436C212.383 39.876 210.833 39.8013 209.788 39.652C207.641 39.3533 206.017 38.7653 204.916 37.888C204.711 37.7387 204.505 37.664 204.3 37.664C204.113 37.664 203.927 37.7107 203.74 37.804L203.068 38.252L200.8 39.568C200.669 39.6427 200.501 39.68 200.296 39.68C200.091 39.68 199.913 39.5213 199.764 39.204ZM230.844 19.128L232.44 19.1C232.776 19.1 233.065 19.0907 233.308 19.072C233.569 19.0533 233.747 19.0067 233.84 18.932C233.952 18.8387 234.008 18.6893 234.008 18.484V17.14C234.008 16.8227 234.111 16.5707 234.316 16.384C234.521 16.1787 234.783 16.076 235.1 16.076H236.892C237.209 16.076 237.461 16.1787 237.648 16.384C237.853 16.5707 237.956 16.8227 237.956 17.14V18.092C237.956 18.2787 238.003 18.4187 238.096 18.512C238.208 18.6053 238.32 18.652 238.432 18.652C238.469 18.652 238.656 18.6333 238.992 18.596C239.328 18.54 239.571 18.5027 239.72 18.484C239.888 18.4467 240.037 18.428 240.168 18.428C240.299 18.4093 240.42 18.3813 240.532 18.344C240.625 18.3253 240.709 18.316 240.784 18.316C241.083 18.316 241.307 18.4187 241.456 18.624C241.568 18.7733 241.633 18.9693 241.652 19.212C241.708 20.4627 241.736 21.0973 241.736 21.116C241.736 21.3587 241.652 21.5733 241.484 21.76C241.335 21.9467 241.139 22.0587 240.896 22.096C240.429 22.1893 239.972 22.2547 239.524 22.292C239.076 22.3293 238.749 22.3667 238.544 22.404C238.339 22.4227 238.189 22.4787 238.096 22.572C238.003 22.6467 237.956 22.7773 237.956 22.964V24.168C237.956 24.3547 238.068 24.56 238.292 24.784C238.572 25.1013 238.805 25.596 238.992 26.268C239.048 26.5293 239.076 26.7907 239.076 27.052C239.076 27.5747 238.973 28.088 238.768 28.592C238.451 29.3387 238.124 29.9173 237.788 30.328C237.452 30.7387 237.097 31.2147 236.724 31.756C236.351 32.2973 236.164 32.792 236.164 33.24C236.164 33.6693 236.22 33.9587 236.332 34.108C236.444 34.2387 236.715 34.332 237.144 34.388C237.592 34.4253 238.143 34.444 238.796 34.444C239.468 34.444 240.019 34.4347 240.448 34.416C240.877 34.3973 241.307 34.3507 241.736 34.276C242.669 34.0893 243.313 33.7533 243.668 33.268C243.929 32.876 244.097 32.3627 244.172 31.728C244.265 30.664 244.293 29.908 244.256 29.46C244.256 29.4227 244.256 29.3667 244.256 29.292C244.256 29.1987 244.284 29.1053 244.34 29.012C244.433 28.8627 244.564 28.788 244.732 28.788C244.844 28.788 244.975 28.8253 245.124 28.9C246.057 29.2547 246.907 29.488 247.672 29.6C247.915 29.6373 248.101 29.7213 248.232 29.852C248.419 30.02 248.512 30.244 248.512 30.524C248.475 33.5853 247.625 35.7413 245.964 36.992C245.18 37.5893 244.219 38 243.08 38.224C241.96 38.448 240.933 38.56 240 38.56C239.067 38.56 238.301 38.5507 237.704 38.532C237.125 38.532 236.537 38.4853 235.94 38.392C234.521 38.224 233.476 37.86 232.804 37.3C232.132 36.7213 231.796 35.9093 231.796 34.864C231.796 34.36 231.899 33.8467 232.104 33.324C232.141 33.1373 232.263 32.8387 232.468 32.428C232.505 32.3533 232.524 32.288 232.524 32.232C232.524 32.12 232.393 32.0267 232.132 31.952C231.777 31.8213 231.507 31.6907 231.32 31.56C230.648 31.112 230.181 30.468 229.92 29.628C229.789 29.18 229.724 28.7413 229.724 28.312C229.724 27.8827 229.771 27.4627 229.864 27.052C230.069 26.1373 230.489 25.3813 231.124 24.784C231.777 24.168 232.552 23.7293 233.448 23.468C233.448 23.468 233.635 23.412 234.008 23.3V22.992C234.008 22.8987 233.989 22.8333 233.952 22.796C233.933 22.7587 233.905 22.74 233.868 22.74C233.812 22.74 233.775 22.74 233.756 22.74C232.393 22.8333 231.273 22.88 230.396 22.88C230.116 22.88 229.892 22.8053 229.724 22.656C229.5 22.488 229.379 22.2267 229.36 21.872C229.267 20.752 229.22 20.1733 229.22 20.136C229.22 19.8373 229.313 19.5947 229.5 19.408C229.705 19.2027 229.967 19.1 230.284 19.1L230.844 19.128ZM243.248 23.3C243.248 23.0387 243.369 22.7867 243.612 22.544L244.816 21.172C245.003 20.9293 245.217 20.808 245.46 20.808C245.721 20.808 245.927 20.8547 246.076 20.948C246.916 21.3587 247.7 21.8533 248.428 22.432C249.175 23.0107 249.903 23.5987 250.612 24.196C250.836 24.42 250.948 24.6533 250.948 24.896C250.948 25.1387 250.864 25.372 250.696 25.596L249.408 27.22C249.147 27.5373 248.867 27.696 248.568 27.696C248.269 27.696 247.989 27.556 247.728 27.276C247.093 26.6413 246.468 26.1 245.852 25.652C245.236 25.204 244.583 24.7373 243.892 24.252C243.463 24.0093 243.248 23.692 243.248 23.3ZM233.644 28.9C234.073 28.9 234.381 28.5547 234.568 27.864C234.643 27.6773 234.68 27.5187 234.68 27.388C234.68 27.2573 234.652 27.1453 234.596 27.052C234.503 26.828 234.381 26.6973 234.232 26.66C234.195 26.6413 234.157 26.632 234.12 26.632C234.008 26.632 233.868 26.6973 233.7 26.828C233.457 27.0147 233.299 27.2947 233.224 27.668C233.168 27.8733 233.14 28.0413 233.14 28.172C233.14 28.3027 233.159 28.4147 233.196 28.508C233.271 28.7693 233.42 28.9 233.644 28.9Z" fill="white"/>
</svg>
