<svg width="172" height="54" viewBox="0 0 172 54" fill="none" xmlns="http://www.w3.org/2000/svg">
<rect width="172" height="54" rx="27" fill="#D5540A"/>
<path d="M38.4 35.94V32.24C38.4 32.04 38.34 31.88 38.22 31.76C38.1 31.64 37.94 31.58 37.74 31.58H32.72C32.52 31.58 32.36 31.52 32.24 31.4C32.12 31.28 32.06 31.12 32.06 30.92V21.36C32.06 21.16 32.12 21 32.24 20.88C32.36 20.76 32.52 20.7 32.72 20.7H37.74C37.94 20.7 38.1 20.64 38.22 20.52C38.34 20.4 38.4 20.24 38.4 20.04V18.88C38.4 18.68 38.46 18.52 38.58 18.4C38.7 18.28 38.86 18.22 39.06 18.22H40.88C41.08 18.22 41.24 18.28 41.36 18.4C41.48 18.52 41.54 18.68 41.54 18.88V20.04C41.54 20.24 41.6 20.4 41.72 20.52C41.84 20.64 42 20.7 42.2 20.7H47.26C47.46 20.7 47.62 20.76 47.74 20.88C47.86 21 47.92 21.16 47.92 21.36V30.92C47.92 31.12 47.86 31.28 47.74 31.4C47.62 31.52 47.46 31.58 47.26 31.58H42.2C42 31.58 41.84 31.64 41.72 31.76C41.6 31.88 41.54 32.04 41.54 32.24V35.94C41.54 36.14 41.48 36.3 41.36 36.42C41.24 36.54 41.08 36.6 40.88 36.6H39.06C38.86 36.6 38.7 36.54 38.58 36.42C38.46 36.3 38.4 36.14 38.4 35.94ZM42.2 24.88H44.1C44.3 24.88 44.46 24.82 44.58 24.7C44.7 24.58 44.76 24.42 44.76 24.22V24.08C44.76 23.88 44.7 23.72 44.58 23.6C44.46 23.48 44.3 23.42 44.1 23.42H42.2C42 23.42 41.84 23.48 41.72 23.6C41.6 23.72 41.54 23.88 41.54 24.08V24.22C41.54 24.42 41.6 24.58 41.72 24.7C41.84 24.82 42 24.88 42.2 24.88ZM35.9 24.88H37.74C37.94 24.88 38.1 24.82 38.22 24.7C38.34 24.58 38.4 24.42 38.4 24.22V24.08C38.4 23.88 38.34 23.72 38.22 23.6C38.1 23.48 37.94 23.42 37.74 23.42H35.9C35.7 23.42 35.54 23.48 35.42 23.6C35.3 23.72 35.24 23.88 35.24 24.08V24.22C35.24 24.42 35.3 24.58 35.42 24.7C35.54 24.82 35.7 24.88 35.9 24.88ZM42.2 28.86H44.1C44.3 28.86 44.46 28.8 44.58 28.68C44.7 28.56 44.76 28.4 44.76 28.2V28.08C44.76 27.88 44.7 27.72 44.58 27.6C44.46 27.48 44.3 27.42 44.1 27.42H42.2C42 27.42 41.84 27.48 41.72 27.6C41.6 27.72 41.54 27.88 41.54 28.08V28.2C41.54 28.4 41.6 28.56 41.72 28.68C41.84 28.8 42 28.86 42.2 28.86ZM35.9 28.86H37.74C37.94 28.86 38.1 28.8 38.22 28.68C38.34 28.56 38.4 28.4 38.4 28.2V28.08C38.4 27.88 38.34 27.72 38.22 27.6C38.1 27.48 37.94 27.42 37.74 27.42H35.9C35.7 27.42 35.54 27.48 35.42 27.6C35.3 27.72 35.24 27.88 35.24 28.08V28.2C35.24 28.4 35.3 28.56 35.42 28.68C35.54 28.8 35.7 28.86 35.9 28.86ZM58.28 20.26L58.26 20.6C58.26 20.7333 58.2333 21.3333 58.18 22.4L58.14 25.64V31.04C58.14 31.3867 58.2333 31.64 58.42 31.8C58.58 31.9333 58.8 32.0133 59.08 32.04C59.28 32.0533 59.4933 32.06 59.72 32.06C61.8267 32.06 63.7133 31.3933 65.38 30.06C65.5133 29.9667 65.64 29.92 65.76 29.92C65.88 29.92 65.9733 29.9733 66.04 30.08C66.08 30.16 66.1 30.2667 66.1 30.4C66.1 30.5333 66.12 30.68 66.16 30.84V30.86C66.2 31.2333 66.2533 31.5867 66.32 31.92L66.4 32.38C66.4267 32.4467 66.44 32.5067 66.44 32.56C66.44 32.8133 66.3267 33.0067 66.1 33.14C65.14 33.7933 64.0933 34.28 62.96 34.6C61.84 34.92 60.8267 35.08 59.92 35.08C59.0133 35.08 58.2867 35.04 57.74 34.96C57.2067 34.88 56.74 34.7133 56.34 34.46C55.5 33.9533 55.08 33 55.08 31.6V20.3C55.08 20.0733 55.1467 19.8933 55.28 19.76C55.4267 19.6133 55.6067 19.54 55.82 19.54C55.8333 19.54 56.4333 19.5733 57.62 19.64C57.82 19.6533 57.98 19.7267 58.1 19.86C58.22 19.98 58.28 20.1133 58.28 20.26ZM74.62 23.14C74.5133 23.14 74.4133 23.0933 74.32 23C74.24 22.8933 74.1467 22.7867 74.04 22.68L73.68 22.32C73.0933 21.7467 72.48 21.2133 71.84 20.72C71.44 20.4133 71.4133 20.0867 71.76 19.74L72.74 18.76C72.86 18.6267 72.9867 18.56 73.12 18.56C73.2667 18.56 73.38 18.5933 73.46 18.66C73.5533 18.7133 73.6333 18.7667 73.7 18.82C73.78 18.86 73.8533 18.9067 73.92 18.96L74.92 19.76C75.0933 19.9067 75.26 20.0467 75.42 20.18C75.5933 20.3133 75.7333 20.4333 75.84 20.54C76 20.7 76.1667 20.8667 76.34 21.04C76.5133 21.2133 76.4933 21.4 76.28 21.6C76.24 21.64 76.1933 21.6867 76.14 21.74C76.0867 21.78 76.0133 21.8467 75.92 21.94C75.8267 22.0333 75.7133 22.14 75.58 22.26C75.46 22.38 75.36 22.4933 75.28 22.6C75.0933 22.7867 74.96 22.9267 74.88 23.02C74.8133 23.1 74.7267 23.14 74.62 23.14ZM78.8 32.66C78.6667 32.78 78.5133 32.84 78.34 32.84C78.18 32.84 78.0133 32.7533 77.84 32.58C77.6667 32.3933 77.4933 32.24 77.32 32.12C77.16 32 77.0333 31.9067 76.94 31.84C76.8467 31.7733 76.7533 31.7067 76.66 31.64C76.2867 31.4133 76.26 31.16 76.58 30.88C77.5133 30.0933 78.3467 28.9867 79.08 27.56C79.76 26.24 80.2 24.9133 80.4 23.58C80.4667 23.1533 80.7133 22.96 81.14 23L81.18 23.02C81.38 23.0467 81.54 23.0067 81.66 22.9C81.78 22.78 81.8333 22.62 81.82 22.42V22.38C81.8067 22.18 81.74 22.02 81.62 21.9C81.5 21.78 81.34 21.72 81.14 21.72H79.1C78.9 21.72 78.74 21.66 78.62 21.54C78.5 21.42 78.44 21.26 78.44 21.06V19.56C78.44 19.36 78.5 19.2 78.62 19.08C78.74 18.96 78.9 18.9 79.1 18.9H83.92C84.1333 18.9 84.3 18.9667 84.42 19.1C84.54 19.22 84.5867 19.3867 84.56 19.6C84.48 21.0667 84.54 22.4733 84.74 23.82C84.9533 25.1667 85.4067 26.44 86.1 27.64C86.8067 28.84 87.7467 29.86 88.92 30.7C89.16 30.8867 89.1667 31.0733 88.94 31.26C88.9267 31.2733 88.9133 31.2867 88.9 31.3C88.8867 31.3 88.8667 31.3133 88.84 31.34L88.66 31.48C88.6333 31.4933 88.6133 31.5067 88.6 31.52C88.6 31.5333 88.56 31.5733 88.48 31.64C88.0533 32 87.7067 32.3467 87.44 32.68C87.3467 32.8 87.22 32.86 87.06 32.86C86.9133 32.86 86.7067 32.7467 86.44 32.52C86.1733 32.2933 85.8933 32.0333 85.6 31.74C84.7333 30.8467 84.1067 30.0667 83.72 29.4C83.5333 29.0933 83.36 28.7733 83.2 28.44C82.9467 27.8933 82.7 27.62 82.46 27.62C82.22 27.62 81.9467 27.9467 81.64 28.6C80.9333 30.1733 79.9867 31.5267 78.8 32.66ZM71.26 35.86L70.5 33.94C70.3933 33.6467 70.48 33.4467 70.76 33.34L72.26 32.8L72.64 32.64C72.8933 32.5067 73.02 32.3133 73.02 32.06V28.54C73.02 28.34 72.96 28.18 72.84 28.06C72.72 27.94 72.56 27.88 72.36 27.88H71.58C71.38 27.88 71.22 27.82 71.1 27.7C70.98 27.58 70.92 27.42 70.92 27.22V26C70.92 25.8 70.98 25.64 71.1 25.52C71.22 25.4 71.38 25.34 71.58 25.34H75.14C75.34 25.34 75.5 25.4 75.62 25.52C75.74 25.64 75.8 25.8 75.8 26V32.04C75.8 32.6133 76.2733 33.0333 77.22 33.3C78.1667 33.5533 79.6733 33.68 81.74 33.68C84.9667 33.68 87.3867 33.5867 89 33.4C89.28 33.36 89.38 33.4733 89.3 33.74C89.06 34.5133 88.9267 35.0333 88.9 35.3C88.8867 35.58 88.8733 35.76 88.86 35.84C88.82 36.1733 88.64 36.34 88.32 36.34H81.74C80.2733 36.34 79.1667 36.2867 78.42 36.18C76.8867 35.9667 75.7267 35.5467 74.94 34.92C74.7933 34.8133 74.6467 34.76 74.5 34.76C74.3667 34.76 74.2333 34.7933 74.1 34.86L73.62 35.18L72 36.12C71.9067 36.1733 71.7867 36.2 71.64 36.2C71.4933 36.2 71.3667 36.0867 71.26 35.86ZM93.46 21.52L94.6 21.5C94.84 21.5 95.0467 21.4933 95.22 21.48C95.4067 21.4667 95.5333 21.4333 95.6 21.38C95.68 21.3133 95.72 21.2067 95.72 21.06V20.1C95.72 19.8733 95.7933 19.6933 95.94 19.56C96.0867 19.4133 96.2733 19.34 96.5 19.34H97.78C98.0067 19.34 98.1867 19.4133 98.32 19.56C98.4667 19.6933 98.54 19.8733 98.54 20.1V20.78C98.54 20.9133 98.5733 21.0133 98.64 21.08C98.72 21.1467 98.8 21.18 98.88 21.18C98.9067 21.18 99.04 21.1667 99.28 21.14C99.52 21.1 99.6933 21.0733 99.8 21.06C99.92 21.0333 100.027 21.02 100.12 21.02C100.213 21.0067 100.3 20.9867 100.38 20.96C100.447 20.9467 100.507 20.94 100.56 20.94C100.773 20.94 100.933 21.0133 101.04 21.16C101.12 21.2667 101.167 21.4067 101.18 21.58C101.22 22.4733 101.24 22.9267 101.24 22.94C101.24 23.1133 101.18 23.2667 101.06 23.4C100.953 23.5333 100.813 23.6133 100.64 23.64C100.307 23.7067 99.98 23.7533 99.66 23.78C99.34 23.8067 99.1067 23.8333 98.96 23.86C98.8133 23.8733 98.7067 23.9133 98.64 23.98C98.5733 24.0333 98.54 24.1267 98.54 24.26V25.12C98.54 25.2533 98.62 25.4 98.78 25.56C98.98 25.7867 99.1467 26.14 99.28 26.62C99.32 26.8067 99.34 26.9933 99.34 27.18C99.34 27.5533 99.2667 27.92 99.12 28.28C98.8933 28.8133 98.66 29.2267 98.42 29.52C98.18 29.8133 97.9267 30.1533 97.66 30.54C97.3933 30.9267 97.26 31.28 97.26 31.6C97.26 31.9067 97.3 32.1133 97.38 32.22C97.46 32.3133 97.6533 32.38 97.96 32.42C98.28 32.4467 98.6733 32.46 99.14 32.46C99.62 32.46 100.013 32.4533 100.32 32.44C100.627 32.4267 100.933 32.3933 101.24 32.34C101.907 32.2067 102.367 31.9667 102.62 31.62C102.807 31.34 102.927 30.9733 102.98 30.52C103.047 29.76 103.067 29.22 103.04 28.9C103.04 28.8733 103.04 28.8333 103.04 28.78C103.04 28.7133 103.06 28.6467 103.1 28.58C103.167 28.4733 103.26 28.42 103.38 28.42C103.46 28.42 103.553 28.4467 103.66 28.5C104.327 28.7533 104.933 28.92 105.48 29C105.653 29.0267 105.787 29.0867 105.88 29.18C106.013 29.3 106.08 29.46 106.08 29.66C106.053 31.8467 105.447 33.3867 104.26 34.28C103.7 34.7067 103.013 35 102.2 35.16C101.4 35.32 100.667 35.4 100 35.4C99.3333 35.4 98.7867 35.3933 98.36 35.38C97.9467 35.38 97.5267 35.3467 97.1 35.28C96.0867 35.16 95.34 34.9 94.86 34.5C94.38 34.0867 94.14 33.5067 94.14 32.76C94.14 32.4 94.2133 32.0333 94.36 31.66C94.3867 31.5267 94.4733 31.3133 94.62 31.02C94.6467 30.9667 94.66 30.92 94.66 30.88C94.66 30.8 94.5667 30.7333 94.38 30.68C94.1267 30.5867 93.9333 30.4933 93.8 30.4C93.32 30.08 92.9867 29.62 92.8 29.02C92.7067 28.7 92.66 28.3867 92.66 28.08C92.66 27.7733 92.6933 27.4733 92.76 27.18C92.9067 26.5267 93.2067 25.9867 93.66 25.56C94.1267 25.12 94.68 24.8067 95.32 24.62C95.32 24.62 95.4533 24.58 95.72 24.5V24.28C95.72 24.2133 95.7067 24.1667 95.68 24.14C95.6667 24.1133 95.6467 24.1 95.62 24.1C95.58 24.1 95.5533 24.1 95.54 24.1C94.5667 24.1667 93.7667 24.2 93.14 24.2C92.94 24.2 92.78 24.1467 92.66 24.04C92.5 23.92 92.4133 23.7333 92.4 23.48C92.3333 22.68 92.3 22.2667 92.3 22.24C92.3 22.0267 92.3667 21.8533 92.5 21.72C92.6467 21.5733 92.8333 21.5 93.06 21.5L93.46 21.52ZM102.32 24.5C102.32 24.3133 102.407 24.1333 102.58 23.96L103.44 22.98C103.573 22.8067 103.727 22.72 103.9 22.72C104.087 22.72 104.233 22.7533 104.34 22.82C104.94 23.1133 105.5 23.4667 106.02 23.88C106.553 24.2933 107.073 24.7133 107.58 25.14C107.74 25.3 107.82 25.4667 107.82 25.64C107.82 25.8133 107.76 25.98 107.64 26.14L106.72 27.3C106.533 27.5267 106.333 27.64 106.12 27.64C105.907 27.64 105.707 27.54 105.52 27.34C105.067 26.8867 104.62 26.5 104.18 26.18C103.74 25.86 103.273 25.5267 102.78 25.18C102.473 25.0067 102.32 24.78 102.32 24.5ZM95.46 28.5C95.7667 28.5 95.9867 28.2533 96.12 27.76C96.1733 27.6267 96.2 27.5133 96.2 27.42C96.2 27.3267 96.18 27.2467 96.14 27.18C96.0733 27.02 95.9867 26.9267 95.88 26.9C95.8533 26.8867 95.8267 26.88 95.8 26.88C95.72 26.88 95.62 26.9267 95.5 27.02C95.3267 27.1533 95.2133 27.3533 95.16 27.62C95.12 27.7667 95.1 27.8867 95.1 27.98C95.1 28.0733 95.1133 28.1533 95.14 28.22C95.1933 28.4067 95.3 28.5 95.46 28.5Z" fill="black"/>
<path d="M38.4 35.94V32.24C38.4 32.04 38.34 31.88 38.22 31.76C38.1 31.64 37.94 31.58 37.74 31.58H32.72C32.52 31.58 32.36 31.52 32.24 31.4C32.12 31.28 32.06 31.12 32.06 30.92V21.36C32.06 21.16 32.12 21 32.24 20.88C32.36 20.76 32.52 20.7 32.72 20.7H37.74C37.94 20.7 38.1 20.64 38.22 20.52C38.34 20.4 38.4 20.24 38.4 20.04V18.88C38.4 18.68 38.46 18.52 38.58 18.4C38.7 18.28 38.86 18.22 39.06 18.22H40.88C41.08 18.22 41.24 18.28 41.36 18.4C41.48 18.52 41.54 18.68 41.54 18.88V20.04C41.54 20.24 41.6 20.4 41.72 20.52C41.84 20.64 42 20.7 42.2 20.7H47.26C47.46 20.7 47.62 20.76 47.74 20.88C47.86 21 47.92 21.16 47.92 21.36V30.92C47.92 31.12 47.86 31.28 47.74 31.4C47.62 31.52 47.46 31.58 47.26 31.58H42.2C42 31.58 41.84 31.64 41.72 31.76C41.6 31.88 41.54 32.04 41.54 32.24V35.94C41.54 36.14 41.48 36.3 41.36 36.42C41.24 36.54 41.08 36.6 40.88 36.6H39.06C38.86 36.6 38.7 36.54 38.58 36.42C38.46 36.3 38.4 36.14 38.4 35.94ZM42.2 24.88H44.1C44.3 24.88 44.46 24.82 44.58 24.7C44.7 24.58 44.76 24.42 44.76 24.22V24.08C44.76 23.88 44.7 23.72 44.58 23.6C44.46 23.48 44.3 23.42 44.1 23.42H42.2C42 23.42 41.84 23.48 41.72 23.6C41.6 23.72 41.54 23.88 41.54 24.08V24.22C41.54 24.42 41.6 24.58 41.72 24.7C41.84 24.82 42 24.88 42.2 24.88ZM35.9 24.88H37.74C37.94 24.88 38.1 24.82 38.22 24.7C38.34 24.58 38.4 24.42 38.4 24.22V24.08C38.4 23.88 38.34 23.72 38.22 23.6C38.1 23.48 37.94 23.42 37.74 23.42H35.9C35.7 23.42 35.54 23.48 35.42 23.6C35.3 23.72 35.24 23.88 35.24 24.08V24.22C35.24 24.42 35.3 24.58 35.42 24.7C35.54 24.82 35.7 24.88 35.9 24.88ZM42.2 28.86H44.1C44.3 28.86 44.46 28.8 44.58 28.68C44.7 28.56 44.76 28.4 44.76 28.2V28.08C44.76 27.88 44.7 27.72 44.58 27.6C44.46 27.48 44.3 27.42 44.1 27.42H42.2C42 27.42 41.84 27.48 41.72 27.6C41.6 27.72 41.54 27.88 41.54 28.08V28.2C41.54 28.4 41.6 28.56 41.72 28.68C41.84 28.8 42 28.86 42.2 28.86ZM35.9 28.86H37.74C37.94 28.86 38.1 28.8 38.22 28.68C38.34 28.56 38.4 28.4 38.4 28.2V28.08C38.4 27.88 38.34 27.72 38.22 27.6C38.1 27.48 37.94 27.42 37.74 27.42H35.9C35.7 27.42 35.54 27.48 35.42 27.6C35.3 27.72 35.24 27.88 35.24 28.08V28.2C35.24 28.4 35.3 28.56 35.42 28.68C35.54 28.8 35.7 28.86 35.9 28.86ZM58.28 20.26L58.26 20.6C58.26 20.7333 58.2333 21.3333 58.18 22.4L58.14 25.64V31.04C58.14 31.3867 58.2333 31.64 58.42 31.8C58.58 31.9333 58.8 32.0133 59.08 32.04C59.28 32.0533 59.4933 32.06 59.72 32.06C61.8267 32.06 63.7133 31.3933 65.38 30.06C65.5133 29.9667 65.64 29.92 65.76 29.92C65.88 29.92 65.9733 29.9733 66.04 30.08C66.08 30.16 66.1 30.2667 66.1 30.4C66.1 30.5333 66.12 30.68 66.16 30.84V30.86C66.2 31.2333 66.2533 31.5867 66.32 31.92L66.4 32.38C66.4267 32.4467 66.44 32.5067 66.44 32.56C66.44 32.8133 66.3267 33.0067 66.1 33.14C65.14 33.7933 64.0933 34.28 62.96 34.6C61.84 34.92 60.8267 35.08 59.92 35.08C59.0133 35.08 58.2867 35.04 57.74 34.96C57.2067 34.88 56.74 34.7133 56.34 34.46C55.5 33.9533 55.08 33 55.08 31.6V20.3C55.08 20.0733 55.1467 19.8933 55.28 19.76C55.4267 19.6133 55.6067 19.54 55.82 19.54C55.8333 19.54 56.4333 19.5733 57.62 19.64C57.82 19.6533 57.98 19.7267 58.1 19.86C58.22 19.98 58.28 20.1133 58.28 20.26ZM74.62 23.14C74.5133 23.14 74.4133 23.0933 74.32 23C74.24 22.8933 74.1467 22.7867 74.04 22.68L73.68 22.32C73.0933 21.7467 72.48 21.2133 71.84 20.72C71.44 20.4133 71.4133 20.0867 71.76 19.74L72.74 18.76C72.86 18.6267 72.9867 18.56 73.12 18.56C73.2667 18.56 73.38 18.5933 73.46 18.66C73.5533 18.7133 73.6333 18.7667 73.7 18.82C73.78 18.86 73.8533 18.9067 73.92 18.96L74.92 19.76C75.0933 19.9067 75.26 20.0467 75.42 20.18C75.5933 20.3133 75.7333 20.4333 75.84 20.54C76 20.7 76.1667 20.8667 76.34 21.04C76.5133 21.2133 76.4933 21.4 76.28 21.6C76.24 21.64 76.1933 21.6867 76.14 21.74C76.0867 21.78 76.0133 21.8467 75.92 21.94C75.8267 22.0333 75.7133 22.14 75.58 22.26C75.46 22.38 75.36 22.4933 75.28 22.6C75.0933 22.7867 74.96 22.9267 74.88 23.02C74.8133 23.1 74.7267 23.14 74.62 23.14ZM78.8 32.66C78.6667 32.78 78.5133 32.84 78.34 32.84C78.18 32.84 78.0133 32.7533 77.84 32.58C77.6667 32.3933 77.4933 32.24 77.32 32.12C77.16 32 77.0333 31.9067 76.94 31.84C76.8467 31.7733 76.7533 31.7067 76.66 31.64C76.2867 31.4133 76.26 31.16 76.58 30.88C77.5133 30.0933 78.3467 28.9867 79.08 27.56C79.76 26.24 80.2 24.9133 80.4 23.58C80.4667 23.1533 80.7133 22.96 81.14 23L81.18 23.02C81.38 23.0467 81.54 23.0067 81.66 22.9C81.78 22.78 81.8333 22.62 81.82 22.42V22.38C81.8067 22.18 81.74 22.02 81.62 21.9C81.5 21.78 81.34 21.72 81.14 21.72H79.1C78.9 21.72 78.74 21.66 78.62 21.54C78.5 21.42 78.44 21.26 78.44 21.06V19.56C78.44 19.36 78.5 19.2 78.62 19.08C78.74 18.96 78.9 18.9 79.1 18.9H83.92C84.1333 18.9 84.3 18.9667 84.42 19.1C84.54 19.22 84.5867 19.3867 84.56 19.6C84.48 21.0667 84.54 22.4733 84.74 23.82C84.9533 25.1667 85.4067 26.44 86.1 27.64C86.8067 28.84 87.7467 29.86 88.92 30.7C89.16 30.8867 89.1667 31.0733 88.94 31.26C88.9267 31.2733 88.9133 31.2867 88.9 31.3C88.8867 31.3 88.8667 31.3133 88.84 31.34L88.66 31.48C88.6333 31.4933 88.6133 31.5067 88.6 31.52C88.6 31.5333 88.56 31.5733 88.48 31.64C88.0533 32 87.7067 32.3467 87.44 32.68C87.3467 32.8 87.22 32.86 87.06 32.86C86.9133 32.86 86.7067 32.7467 86.44 32.52C86.1733 32.2933 85.8933 32.0333 85.6 31.74C84.7333 30.8467 84.1067 30.0667 83.72 29.4C83.5333 29.0933 83.36 28.7733 83.2 28.44C82.9467 27.8933 82.7 27.62 82.46 27.62C82.22 27.62 81.9467 27.9467 81.64 28.6C80.9333 30.1733 79.9867 31.5267 78.8 32.66ZM71.26 35.86L70.5 33.94C70.3933 33.6467 70.48 33.4467 70.76 33.34L72.26 32.8L72.64 32.64C72.8933 32.5067 73.02 32.3133 73.02 32.06V28.54C73.02 28.34 72.96 28.18 72.84 28.06C72.72 27.94 72.56 27.88 72.36 27.88H71.58C71.38 27.88 71.22 27.82 71.1 27.7C70.98 27.58 70.92 27.42 70.92 27.22V26C70.92 25.8 70.98 25.64 71.1 25.52C71.22 25.4 71.38 25.34 71.58 25.34H75.14C75.34 25.34 75.5 25.4 75.62 25.52C75.74 25.64 75.8 25.8 75.8 26V32.04C75.8 32.6133 76.2733 33.0333 77.22 33.3C78.1667 33.5533 79.6733 33.68 81.74 33.68C84.9667 33.68 87.3867 33.5867 89 33.4C89.28 33.36 89.38 33.4733 89.3 33.74C89.06 34.5133 88.9267 35.0333 88.9 35.3C88.8867 35.58 88.8733 35.76 88.86 35.84C88.82 36.1733 88.64 36.34 88.32 36.34H81.74C80.2733 36.34 79.1667 36.2867 78.42 36.18C76.8867 35.9667 75.7267 35.5467 74.94 34.92C74.7933 34.8133 74.6467 34.76 74.5 34.76C74.3667 34.76 74.2333 34.7933 74.1 34.86L73.62 35.18L72 36.12C71.9067 36.1733 71.7867 36.2 71.64 36.2C71.4933 36.2 71.3667 36.0867 71.26 35.86ZM93.46 21.52L94.6 21.5C94.84 21.5 95.0467 21.4933 95.22 21.48C95.4067 21.4667 95.5333 21.4333 95.6 21.38C95.68 21.3133 95.72 21.2067 95.72 21.06V20.1C95.72 19.8733 95.7933 19.6933 95.94 19.56C96.0867 19.4133 96.2733 19.34 96.5 19.34H97.78C98.0067 19.34 98.1867 19.4133 98.32 19.56C98.4667 19.6933 98.54 19.8733 98.54 20.1V20.78C98.54 20.9133 98.5733 21.0133 98.64 21.08C98.72 21.1467 98.8 21.18 98.88 21.18C98.9067 21.18 99.04 21.1667 99.28 21.14C99.52 21.1 99.6933 21.0733 99.8 21.06C99.92 21.0333 100.027 21.02 100.12 21.02C100.213 21.0067 100.3 20.9867 100.38 20.96C100.447 20.9467 100.507 20.94 100.56 20.94C100.773 20.94 100.933 21.0133 101.04 21.16C101.12 21.2667 101.167 21.4067 101.18 21.58C101.22 22.4733 101.24 22.9267 101.24 22.94C101.24 23.1133 101.18 23.2667 101.06 23.4C100.953 23.5333 100.813 23.6133 100.64 23.64C100.307 23.7067 99.98 23.7533 99.66 23.78C99.34 23.8067 99.1067 23.8333 98.96 23.86C98.8133 23.8733 98.7067 23.9133 98.64 23.98C98.5733 24.0333 98.54 24.1267 98.54 24.26V25.12C98.54 25.2533 98.62 25.4 98.78 25.56C98.98 25.7867 99.1467 26.14 99.28 26.62C99.32 26.8067 99.34 26.9933 99.34 27.18C99.34 27.5533 99.2667 27.92 99.12 28.28C98.8933 28.8133 98.66 29.2267 98.42 29.52C98.18 29.8133 97.9267 30.1533 97.66 30.54C97.3933 30.9267 97.26 31.28 97.26 31.6C97.26 31.9067 97.3 32.1133 97.38 32.22C97.46 32.3133 97.6533 32.38 97.96 32.42C98.28 32.4467 98.6733 32.46 99.14 32.46C99.62 32.46 100.013 32.4533 100.32 32.44C100.627 32.4267 100.933 32.3933 101.24 32.34C101.907 32.2067 102.367 31.9667 102.62 31.62C102.807 31.34 102.927 30.9733 102.98 30.52C103.047 29.76 103.067 29.22 103.04 28.9C103.04 28.8733 103.04 28.8333 103.04 28.78C103.04 28.7133 103.06 28.6467 103.1 28.58C103.167 28.4733 103.26 28.42 103.38 28.42C103.46 28.42 103.553 28.4467 103.66 28.5C104.327 28.7533 104.933 28.92 105.48 29C105.653 29.0267 105.787 29.0867 105.88 29.18C106.013 29.3 106.08 29.46 106.08 29.66C106.053 31.8467 105.447 33.3867 104.26 34.28C103.7 34.7067 103.013 35 102.2 35.16C101.4 35.32 100.667 35.4 100 35.4C99.3333 35.4 98.7867 35.3933 98.36 35.38C97.9467 35.38 97.5267 35.3467 97.1 35.28C96.0867 35.16 95.34 34.9 94.86 34.5C94.38 34.0867 94.14 33.5067 94.14 32.76C94.14 32.4 94.2133 32.0333 94.36 31.66C94.3867 31.5267 94.4733 31.3133 94.62 31.02C94.6467 30.9667 94.66 30.92 94.66 30.88C94.66 30.8 94.5667 30.7333 94.38 30.68C94.1267 30.5867 93.9333 30.4933 93.8 30.4C93.32 30.08 92.9867 29.62 92.8 29.02C92.7067 28.7 92.66 28.3867 92.66 28.08C92.66 27.7733 92.6933 27.4733 92.76 27.18C92.9067 26.5267 93.2067 25.9867 93.66 25.56C94.1267 25.12 94.68 24.8067 95.32 24.62C95.32 24.62 95.4533 24.58 95.72 24.5V24.28C95.72 24.2133 95.7067 24.1667 95.68 24.14C95.6667 24.1133 95.6467 24.1 95.62 24.1C95.58 24.1 95.5533 24.1 95.54 24.1C94.5667 24.1667 93.7667 24.2 93.14 24.2C92.94 24.2 92.78 24.1467 92.66 24.04C92.5 23.92 92.4133 23.7333 92.4 23.48C92.3333 22.68 92.3 22.2667 92.3 22.24C92.3 22.0267 92.3667 21.8533 92.5 21.72C92.6467 21.5733 92.8333 21.5 93.06 21.5L93.46 21.52ZM102.32 24.5C102.32 24.3133 102.407 24.1333 102.58 23.96L103.44 22.98C103.573 22.8067 103.727 22.72 103.9 22.72C104.087 22.72 104.233 22.7533 104.34 22.82C104.94 23.1133 105.5 23.4667 106.02 23.88C106.553 24.2933 107.073 24.7133 107.58 25.14C107.74 25.3 107.82 25.4667 107.82 25.64C107.82 25.8133 107.76 25.98 107.64 26.14L106.72 27.3C106.533 27.5267 106.333 27.64 106.12 27.64C105.907 27.64 105.707 27.54 105.52 27.34C105.067 26.8867 104.62 26.5 104.18 26.18C103.74 25.86 103.273 25.5267 102.78 25.18C102.473 25.0067 102.32 24.78 102.32 24.5ZM95.46 28.5C95.7667 28.5 95.9867 28.2533 96.12 27.76C96.1733 27.6267 96.2 27.5133 96.2 27.42C96.2 27.3267 96.18 27.2467 96.14 27.18C96.0733 27.02 95.9867 26.9267 95.88 26.9C95.8533 26.8867 95.8267 26.88 95.8 26.88C95.72 26.88 95.62 26.9267 95.5 27.02C95.3267 27.1533 95.2133 27.3533 95.16 27.62C95.12 27.7667 95.1 27.8867 95.1 27.98C95.1 28.0733 95.1133 28.1533 95.14 28.22C95.1933 28.4067 95.3 28.5 95.46 28.5Z" fill="white"/>
<circle cx="129" cy="27" r="13" fill="white"/>
<path d="M126.001 21.0009L132 27L126.001 32.9991" stroke="#D5540A" stroke-width="2"/>
</svg>
