<svg xmlns="http://www.w3.org/2000/svg" width="1200" height="900" viewBox="0 0 1200 900" role="img" aria-labelledby="title desc">
  <title id="title">対象の学年 小学生〜中学生</title>
  <desc id="desc">白い角丸カードに緑の人物アイコンと、対象の学年 小学生〜中学生 の文字。</desc>
  <defs>
    <filter id="shadow" x="-10%" y="-10%" width="120%" height="125%">
      <feDropShadow dx="0" dy="22" stdDeviation="18" flood-color="#5a4430" flood-opacity="0.10"/>
    </filter>
    <linearGradient id="leftGreen" x1="0" y1="0" x2="1" y2="1">
      <stop offset="0" stop-color="#69bc6c"/>
      <stop offset="1" stop-color="#278845"/>
    </linearGradient>
    <linearGradient id="rightGreen" x1="0" y1="0" x2="1" y2="1">
      <stop offset="0" stop-color="#20a83b"/>
      <stop offset="1" stop-color="#007b28"/>
    </linearGradient>
  </defs>
  <rect x="42" y="48" width="1116" height="804" rx="96" fill="#ffffff" filter="url(#shadow)"/>
  <g transform="translate(0 6)">
    <g transform="translate(310 126)">
      <circle cx="120" cy="104" r="78" fill="url(#leftGreen)"/>
      <path d="M30 364c0-122 70-196 174-196s174 74 174 196v24H30z" fill="url(#leftGreen)"/>
    </g>
    <g transform="translate(594 126)">
      <circle cx="120" cy="104" r="78" fill="url(#rightGreen)"/>
      <path d="M30 364c0-122 70-196 174-196s174 74 174 196v24H30z" fill="url(#rightGreen)"/>
    </g>
  </g>
  <text x="600" y="570" text-anchor="middle" fill="#101010" font-family="'Noto Sans JP', 'Hiragino Kaku Gothic ProN', sans-serif" font-weight="900" font-size="92">対象の学年</text>
  <text x="600" y="710" text-anchor="middle" fill="#101010" font-family="'Noto Sans JP', 'Hiragino Kaku Gothic ProN', sans-serif" font-weight="900" font-size="112">小学生〜中学生</text>
</svg>
